<?xml version="1.0" encoding="utf-8"?><svg xmlns="http://www.w3.org/2000/svg" xmlns:xlink="http://www.w3.org/1999/xlink"><symbol viewBox="0 -960 960 960" id="boat" xmlns="http://www.w3.org/2000/svg">
    <path d="M156-200 82-457q-4-12 1.5-23.5T101-496l59-20v-224q0-25 17.5-42t42.5-18h150v-90q0-12.75 8.63-21.38Q387.25-920 400-920h160q12.75 0 21.38 8.62Q590-902.75 590-890v90h150q24.75 0 42.38 17.62Q800-764.75 800-740v225l60 19q11 4 16.5 15t1.5 23l-74 258q-39-4-76-22t-66-44q-8.85-8-20.93-8-12.07 0-20.07 9-27 28-64 46.5T480.42-200Q470-200 461-201.1q-9-1.1-18-3.3-29-6.6-55-23.1T339-265q-8-9-20.5-9t-21.5 8q-29 26-65.5 44T156-200ZM480-40q-39 0-80-10.5T320-81q-39 20-79 30.5T160-40h-50q-12.75 0-21.37-8.68Q80-57.35 80-70.18 80-83 88.63-91.5 97.25-100 110-100h50q39 0 75.5-10.5T305-141q7.19-5 15.09-5 7.91 0 14.91 5 26 15 54.5 24t57.5 13q7.69 1 16.35 1.5 8.65.5 16.93.5 37.24 0 74.48-9.5T625-141q7.19-4 15.09-4 7.91 0 14.91 4 33 20 69.5 30.5T800-100h50q12.75 0 21.38 8.68 8.62 8.67 8.62 21.5 0 12.82-8.62 21.32Q862.75-40 850-40h-50q-41 0-81-10.5T640-81q-39 20-80 30.5T480-40ZM220-535l241-78q9.16-3 19.08-3 9.92 0 18.92 3l241 79v-206H220v205Zm260.25 275q33.75 0 62.25-19t51.5-44q19-20 47-20.5t48 19.5q17 16 35 30t38 25l51-179-333-108-334 108 52 177q20.07-11.24 37.04-23.89Q252.02-307.54 269-323q21-20 49.03-20.5Q346.05-344 365-324q17 17 35 32t41 24q10 4 19.56 6 9.57 2 19.69 2ZM480-408Z"/>
</symbol><symbol id="cargo_ship" viewBox="0 0 247.42 156.91" xmlns="http://www.w3.org/2000/svg">
    <defs>
        <style>.bcls-1{fill:none;stroke:#231f20;stroke-linecap:round;stroke-linejoin:round;stroke-width:2px;}</style>
    </defs>
    <path class="bcls-1" d="M149.42,90.37v0a9.57,9.57,0,0,1-8.88,6H65.31S67.6,108,72.89,111.48h0V117h67.7c33.61,0,41.53-31,41.53-31H155.93A7,7,0,0,0,149.42,90.37Z"/>
    <rect class="bcls-1" x="76.6" y="79.97" width="24.48" height="16.45"/>
    <rect class="bcls-1" x="84.62" y="68.62" width="16.45" height="11.34"/>
    <rect class="bcls-1" x="80.71" y="64.08" width="23.42" height="4.54"/>
    <line class="bcls-1" x1="101.08" y1="64.08" x2="101.08" y2="51.29"/>
    <line class="bcls-1" x1="96.89" y1="64.08" x2="96.89" y2="55.09"/>
    <rect class="bcls-1" x="111.51" y="85.63" width="25.02" height="10.78"/>
    <rect class="bcls-1" x="111.51" y="74.85" width="25.02" height="10.78"/>
    <rect class="bcls-1" x="136.53" y="68.16" width="32.8" height="14.13"/>
    <polyline class="bcls-1" points="169.33 85.95 169.33 82.29 163.32 82.29 160.15 82.29 154.51 82.29 151.35 82.29 145.71 82.29 142.55 82.29 136.54 82.29 136.54 96.42"/>
    <line class="bcls-1" x1="97.15" y1="73.22" x2="88.55" y2="73.22"/>
    <line class="bcls-1" x1="97.15" y1="86.27" x2="79.96" y2="86.27"/>
    <path class="bcls-1" d="M79.42,105.51a.8.8,0,1,1-.79-.79A.79.79,0,0,1,79.42,105.51Z"/>
    <path class="bcls-1" d="M86.57,105.51a.79.79,0,1,1-.79-.79A.79.79,0,0,1,86.57,105.51Z"/>
    <path class="bcls-1" d="M93.73,105.51a.79.79,0,0,1-.79.79.79.79,0,1,1,0-1.58A.79.79,0,0,1,93.73,105.51Z"/>
    <path class="bcls-1" d="M100.89,105.51a.79.79,0,0,1-.8.79.79.79,0,1,1,0-1.58A.79.79,0,0,1,100.89,105.51Z"/>
</symbol><symbol id="delivery_truck" viewBox="0 0 247.42 161.99" xmlns="http://www.w3.org/2000/svg">
<!--<defs>
    <style>.cls-1{fill:none;stroke:#231f20;stroke-linecap:round;stroke-linejoin:round;stroke-width:2px;}</style>
  </defs>-->
    <path class="ccls-1" d="M141.25,94.71h-6V62.14h17.65a7.29,7.29,0,0,1,6.34,3.71l5.55,9.86,6.75,2.68A2.34,2.34,0,0,1,173,80.56v9.76"/>
    <polyline class="ccls-1" points="160.33 94.71 161.53 94.71 165.32 94.71 173.02 94.71"/>
    <polyline class="ccls-1" points="75.68 80.25 75.68 94.71 80.94 94.71"/>
    <path class="ccls-1" d="M100.88,94.71H130V56.56a5.65,5.65,0,0,0-5.65-5.66H75.68v9.54"/>
    <line class="ccls-1" x1="130.04" y1="94.71" x2="135.26" y2="94.71"/>
    <line class="ccls-1" x1="143.89" y1="79.96" x2="147.37" y2="79.96"/>
    <polyline class="ccls-1" points="173.02 94.71 175.78 94.71 175.78 90.32 165.32 90.32 165.32 94.71"/>
    <circle class="ccls-1" cx="152.37" cy="94.71" r="7.95" transform="translate(-22.34 135.48) rotate(-45)"/>
    <path class="ccls-1" d="M154.57,94.71a2.2,2.2,0,1,1-2.2-2.19A2.2,2.2,0,0,1,154.57,94.71Z"/>
    <path class="ccls-1" d="M94.64,94.71a2.2,2.2,0,1,1-2.19-2.19A2.2,2.2,0,0,1,94.64,94.71Z"/>
    <circle class="ccls-1" cx="92.45" cy="94.71" r="7.95" transform="translate(-29.21 42.59) rotate(-22.5)"/>
    <line class="ccls-1" x1="164.8" y1="75.71" x2="135.26" y2="75.71"/>
    <line class="ccls-1" x1="139.51" y1="62.14" x2="141.25" y2="94.71"/>
    <line class="ccls-1" x1="68.38" y1="60.44" x2="66.47" y2="60.44"/>
    <line class="ccls-1" x1="91.65" y1="60.44" x2="72.36" y2="60.44"/>
    <line class="ccls-1" x1="64.27" y1="75.71" x2="62.36" y2="75.71"/>
    <line class="ccls-1" x1="87.54" y1="75.71" x2="68.25" y2="75.71"/>
    <line class="ccls-1" x1="66.18" y1="68.08" x2="64.27" y2="68.08"/>
    <line class="ccls-1" x1="89.45" y1="68.08" x2="70.16" y2="68.08"/>
</symbol><symbol id="email" viewBox="0 0 491.52 491.52" xml:space="preserve" xmlns="http://www.w3.org/2000/svg">
    <rect y="85.914" style="fill:#F6C358" width="491.52" height="319.693"/>
    <polygon style="fill:#FCD462" points="245.76,217.258 491.52,405.604 0,405.604 "/>
    <polygon style="fill:#DC8744" points="245.76,291.673 0,85.916 491.52,85.916 "/>
    <polygon style="fill:#FCD462" points="245.76,274.261 0,85.916 491.52,85.916 "/>
</symbol><symbol viewBox="0 0 48 48" id="facebook" xmlns="http://www.w3.org/2000/svg">
    <circle style="fill:#039BE5" cx="24" cy="24" r="19"/>
    <g>
        <path style="fill:#FFFFFF" d="M26.572,29.036h4.917l0.772-4.995h-5.69v-2.73c0-2.075,0.678-3.915,2.619-3.915h3.119v-4.359c-0.548-0.074-1.707-0.236-3.897-0.236c-4.573,0-7.254,2.415-7.254,7.917v3.323h-4.701v4.995h4.701v13.729C22.089,42.905,23.032,43,24,43c0.875,0,1.729-0.08,2.572-0.194V29.036z"/>
    </g>
</symbol><symbol id="loader_car" viewBox="0 0 186.6 178.24" xmlns="http://www.w3.org/2000/svg">
    <defs>
        <style>.fcls-1{fill:none;stroke:#231f20;stroke-linecap:round;stroke-linejoin:round;stroke-width:2px;}</style>
    </defs>
    <line class="fcls-1" x1="106.88" y1="113.89" x2="96.9" y2="113.89"/>
    <circle class="fcls-1" cx="83.84" cy="113.89" r="8.99" transform="translate(-57.56 111.35) rotate(-52.61)"/>
    <path class="fcls-1" d="M83.84,117.8a3.91,3.91,0,1,1,3.9-3.91A3.91,3.91,0,0,1,83.84,117.8Z"/>
    <circle class="fcls-1" cx="115.86" cy="113.89" r="8.99" transform="translate(-46.6 115.28) rotate(-45)"/>
    <path class="fcls-1" d="M115.86,117.8a3.91,3.91,0,1,1,3.91-3.91A3.91,3.91,0,0,1,115.86,117.8Z"/>
    <line class="fcls-1" x1="67.41" y1="55.36" x2="67.41" y2="119.27"/>
    <line class="fcls-1" x1="67.41" y1="119.27" x2="34.19" y2="119.27"/>
    <path class="fcls-1" d="M74.85,113.89H71.19a3.79,3.79,0,0,1-3.78-3.79V92.19H79.47L83,78.25a21.68,21.68,0,0,1,21-16.42h8.85a3.8,3.8,0,0,1,3.8,3.8V83.31h0a8.21,8.21,0,0,1,8.21,8.2v8.35h3.65a3.78,3.78,0,0,1,3.79,3.78v6.46a3.79,3.79,0,0,1-3.79,3.79h-3.65"/>
    <rect class="fcls-1" x="38.45" y="92.21" width="24.18" height="27.06"/>
    <rect class="fcls-1" x="38.45" y="98" width="24.18" height="21.28"/>
    <polyline class="fcls-1" points="79.47 92.19 116.64 92.19 116.64 83.31"/>
    <line class="fcls-1" x1="107.64" y1="99.86" x2="105.49" y2="99.86"/>
    <line class="fcls-1" x1="124.85" y1="99.86" x2="112.2" y2="99.86"/>
    <path class="fcls-1" d="M116.64,72.3h-1.86a7.3,7.3,0,0,0-7.22,6.2l-2.07,13.71"/>
    <line class="fcls-1" x1="80.91" y1="86.44" x2="91.39" y2="92.21"/>
    <line class="fcls-1" x1="92.89" y1="79.32" x2="98.06" y2="84.49"/>
    <line class="fcls-1" x1="95.47" y1="81.91" x2="87.59" y2="89.79"/>
    <line class="fcls-1" x1="53.03" y1="115.47" x2="58.27" y2="115.47"/>
    <line class="fcls-1" x1="53.03" y1="112.01" x2="58.27" y2="112.01"/>
</symbol><symbol viewBox="0 0 24 24" id="move_to_inbox" xmlns="http://www.w3.org/2000/svg">
<!--<path d="M0 0h24v24H0V0z" fill="none"/>-->
    <path d="M16 9h-2.55V6h-2.9v3H8l4 4zm3-6H4.99C3.88 3 3 3.9 3 5v14c0 1.1.88 2 1.99 2H19c1.1 0 2-.9 2-2V5c0-1.1-.9-2-2-2zm0 16H5v-3h3.56c.69 1.19 1.97 2 3.45 2s2.75-.81 3.45-2H19v3zm0-5h-4.99c0 1.1-.9 2-2 2s-2-.9-2-2H5l-.01-9H19v9z"/>
</symbol><symbol id="planet_around" viewBox="0 0 217.91 163.13" xmlns="http://www.w3.org/2000/svg">
    <defs>
        <style>.hcls-1{fill:none;stroke:#231f20;stroke-linecap:round;stroke-linejoin:round;stroke-width:2px;}</style>
    </defs>
    <path class="hcls-1" d="M73,90.85a42.25,42.25,0,1,1,78.44-30.72"/>
    <path class="hcls-1" d="M152.61,65.07a43,43,0,0,1,.63,7.32,42.25,42.25,0,0,1-78.32,22"/>
    <path class="hcls-1" d="M134.57,76.41c-1.13,21.45-11.26,38.22-23.57,38.22-9.2,0-17.17-9.34-21.09-23"/>
    <path class="hcls-1" d="M89.06,88.34a71.58,71.58,0,0,1-1.75-16c0-23.33,10.61-42.24,23.69-42.24,12.8,0,23.23,18.13,23.66,40.79"/>
    <path class="hcls-1" d="M141.46,101.66A48.54,48.54,0,0,0,130.25,97a72.29,72.29,0,0,0-38.5,0,48.54,48.54,0,0,0-11.21,4.67"/>
    <path class="hcls-1" d="M141.46,43.13a49.43,49.43,0,0,1-11.21,4.67A70.06,70.06,0,0,1,111,50.4a70.06,70.06,0,0,1-19.25-2.6,49.43,49.43,0,0,1-11.21-4.67"/>
    <line class="hcls-1" x1="131.93" y1="72.39" x2="68.75" y2="72.39"/>
    <line class="hcls-1" x1="153.24" y1="72.39" x2="138.16" y2="72.39"/>
    <path class="hcls-1" d="M105.11,83.74l2.06,6L114.55,80,103,77.25l2.09,6.49c-5.44,1.84-10.68,3.35-15.58,4.49A104.3,104.3,0,0,1,74,90.78c-9.43.74-15.92-.68-17.43-4.47C54.89,82.1,59.7,75.79,68.77,69.09"/>
    <polyline class="hcls-1" points="109.52 50.39 109.53 50.39 109.54 50.39"/>
    <path class="hcls-1" d="M124.12,76.19c3.72-1.7,7.25-3.46,10.55-5.25l1-.55a111.71,111.71,0,0,0,16.21-10.63c7.27-5.9,11-11.34,9.46-15.1-1.67-4.19-12.08-5.91-23.16-4.59"/>
    <line class="hcls-1" x1="111" y1="91.2" x2="111" y2="114.63"/>
    <line class="hcls-1" x1="111" y1="30.15" x2="111" y2="79.17"/>
</symbol><symbol viewBox="0 0 48 48" id="telegram-app" xmlns="http://www.w3.org/2000/svg">
    <circle style="fill:#29B6F6" cx="24" cy="24" r="20"/>
    <path style="fill:#FFFFFF" d="M33.95,15l-3.746,19.126c0,0-0.161,0.874-1.245,0.874c-0.576,0-0.873-0.274-0.873-0.274l-8.114-6.733  l-3.97-2.001l-5.095-1.355c0,0-0.907-0.262-0.907-1.012c0-0.625,0.933-0.923,0.933-0.923l21.316-8.468  c-0.001-0.001,0.651-0.235,1.126-0.234C33.667,14,34,14.125,34,14.5C34,14.75,33.95,15,33.95,15z"/>
    <path style="fill:#B0BEC5" d="M23,30.505l-3.426,3.374c0,0-0.149,0.115-0.348,0.12c-0.069,0.002-0.143-0.009-0.219-0.043  l0.964-5.965L23,30.505z"/>
    <path style="fill:#CFD8DC" d="M29.897,18.196c-0.169-0.22-0.481-0.26-0.701-0.093L16,26c0,0,2.106,5.892,2.427,6.912  c0.322,1.021,0.58,1.045,0.58,1.045l0.964-5.965l9.832-9.096C30.023,18.729,30.064,18.416,29.897,18.196z"/>
</symbol><symbol id="truck" viewBox="0 0 261.86 160.82" xmlns="http://www.w3.org/2000/svg">
    <defs>
        <style>.jcls-1{fill:none;stroke:#231f20;stroke-linecap:round;stroke-linejoin:round;stroke-width:2px;}</style>
    </defs>
    <path class="jcls-1" d="M98.93,87.82h61.35a4.4,4.4,0,0,1,4.4,4.4V113a0,0,0,0,1,0,0H94.53a0,0,0,0,1,0,0V92.21A4.4,4.4,0,0,1,98.93,87.82Z"/>
    <rect class="jcls-1" x="89" y="113.19" width="81.2" height="8.46"/>
    <path class="jcls-1" d="M148.54,48.15H110.67a6.09,6.09,0,0,0-6.09,6.09V87.82h50.05V54.24A6.09,6.09,0,0,0,148.54,48.15Z"/>
    <path class="jcls-1" d="M101.63,41.85h0a3,3,0,0,1,3,2.95v43h-5.9v-43A3,3,0,0,1,101.63,41.85Z"/>
    <path class="jcls-1" d="M157.58,41.85h0a3,3,0,0,0-3,2.95v43h5.9v-43A3,3,0,0,0,157.58,41.85Z"/>
    <rect class="jcls-1" x="104.58" y="62.71" width="50.06" height="18.1"/>
    <rect class="jcls-1" x="104.58" y="58.16" width="50.06" height="4.55"/>
    <path class="jcls-1" d="M141,93.41H118.2a3.13,3.13,0,0,0-3.13,3.13v16.65h29.07V96.54A3.13,3.13,0,0,0,141,93.41Z"/>
    <line class="jcls-1" x1="121.33" y1="107.08" x2="137.88" y2="107.08"/>
    <line class="jcls-1" x1="121.33" y1="100.5" x2="137.88" y2="100.5"/>
    <path class="jcls-1" d="M106.16,121.64v4.79a3,3,0,0,1-3,3H97.55a3,3,0,0,1-3-3v-4.79"/>
    <path class="jcls-1" d="M164.68,121.64v4.79a3,3,0,0,1-3,3h-5.59a3,3,0,0,1-3-3v-4.79"/>
    <line class="jcls-1" x1="151.58" y1="106.16" x2="157.77" y2="106.16"/>
    <line class="jcls-1" x1="107.63" y1="106.16" x2="101.44" y2="106.16"/>
    <rect class="jcls-1" x="165.43" y="64.35" width="6.84" height="14.99" rx="1.98"/>
    <path class="jcls-1" d="M168.85,64.35V62.1a2.3,2.3,0,0,0-2.29-2.29h-6"/>
    <rect class="jcls-1" x="86.94" y="64.35" width="6.84" height="14.99" rx="1.98"/>
    <path class="jcls-1" d="M90.36,64.35V62.1a2.3,2.3,0,0,1,2.29-2.29h6"/>
    <line class="jcls-1" x1="129.61" y1="62.71" x2="129.61" y2="80.8"/>
    <line class="jcls-1" x1="138.78" y1="65.98" x2="135.97" y2="68.79"/>
    <line class="jcls-1" x1="147.59" y1="68.79" x2="139.73" y2="76.65"/>
    <line class="jcls-1" x1="114.06" y1="65.98" x2="111.25" y2="68.79"/>
    <line class="jcls-1" x1="122.87" y1="68.79" x2="115.01" y2="76.65"/>
</symbol><symbol enable-background="new 0 0 20 20" viewBox="0 0 20 20" id="warehouse" xmlns="http://www.w3.org/2000/svg">
<!--<g>
    <rect fill="none" height="20" width="20" x="0"/>
  </g>-->
    <g>
        <path d="M13.5,17H18V6l-8-3L2,6v11h4.5v-6.5h7V17z M16.5,7.04v8.46H15V9H5v6.5H3.5V7.04L10,4.6L16.5,7.04z M9.25,17h-1.5v-1.5h1.5 V17z M10.75,14.5h-1.5V13h1.5V14.5z M12.25,17h-1.5v-1.5h1.5V17z"/>
    </g>
</symbol><symbol viewBox="0 0 48 48" id="whatsapp" xmlns="http://www.w3.org/2000/svg">
    <path style="fill:#FFFFFF" d="M4.868,43.303l2.694-9.835C5.9,30.59,5.026,27.324,5.027,23.979C5.032,13.514,13.548,5,24.014,5c5.079,0.002,9.845,1.979,13.43,5.566c3.584,3.588,5.558,8.356,5.556,13.428c-0.004,10.465-8.522,18.98-18.986,18.98c-0.001,0,0,0,0,0h-0.008c-3.177-0.001-6.3-0.798-9.073-2.311L4.868,43.303z"/>
    <g>
        <path style="fill:#FFFFFF" d="M4.868,43.803c-0.132,0-0.26-0.052-0.355-0.148c-0.125-0.127-0.174-0.312-0.127-0.483l2.639-9.636c-1.636-2.906-2.499-6.206-2.497-9.556C4.532,13.238,13.273,4.5,24.014,4.5c5.21,0.002,10.105,2.031,13.784,5.713c3.679,3.683,5.704,8.577,5.702,13.781c-0.004,10.741-8.746,19.48-19.486,19.48c-3.189-0.001-6.344-0.788-9.144-2.277l-9.875,2.589C4.953,43.798,4.911,43.803,4.868,43.803z"/>
        <path style="fill:#CFD8DC" d="M24.014,5c5.079,0.002,9.845,1.979,13.43,5.566c3.584,3.588,5.558,8.356,5.556,13.428c-0.004,10.465-8.522,18.98-18.986,18.98h-0.008c-3.177-0.001-6.3-0.798-9.073-2.311L4.868,43.303l2.694-9.835C5.9,30.59,5.026,27.324,5.027,23.979C5.032,13.514,13.548,5,24.014,5 M24.014,42.974C24.014,42.974,24.014,42.974,24.014,42.974C24.014,42.974,24.014,42.974,24.014,42.974 M24.014,42.974C24.014,42.974,24.014,42.974,24.014,42.974C24.014,42.974,24.014,42.974,24.014,42.974 M24.014,4C24.014,4,24.014,4,24.014,4C12.998,4,4.032,12.962,4.027,23.979c-0.001,3.367,0.849,6.685,2.461,9.622l-2.585,9.439c-0.094,0.345,0.002,0.713,0.254,0.967c0.19,0.192,0.447,0.297,0.711,0.297c0.085,0,0.17-0.011,0.254-0.033l9.687-2.54c2.828,1.468,5.998,2.243,9.197,2.244c11.024,0,19.99-8.963,19.995-19.98c0.002-5.339-2.075-10.359-5.848-14.135C34.378,6.083,29.357,4.002,24.014,4L24.014,4z"/>
    </g>
    <path style="fill:#40C351" d="M35.176,12.832c-2.98-2.982-6.941-4.625-11.157-4.626c-8.704,0-15.783,7.076-15.787,15.774c-0.001,2.981,0.833,5.883,2.413,8.396l0.376,0.597l-1.595,5.821l5.973-1.566l0.577,0.342c2.422,1.438,5.2,2.198,8.032,2.199h0.006c8.698,0,15.777-7.077,15.78-15.776C39.795,19.778,38.156,15.814,35.176,12.832z"/>
    <path style="fill-rule:evenodd;clip-rule:evenodd;fill:#FFFFFF" d="M19.268,16.045c-0.355-0.79-0.729-0.806-1.068-0.82c-0.277-0.012-0.593-0.011-0.909-0.011c-0.316,0-0.83,0.119-1.265,0.594c-0.435,0.475-1.661,1.622-1.661,3.956c0,2.334,1.7,4.59,1.937,4.906c0.237,0.316,3.282,5.259,8.104,7.161c4.007,1.58,4.823,1.266,5.693,1.187c0.87-0.079,2.807-1.147,3.202-2.255c0.395-1.108,0.395-2.057,0.277-2.255c-0.119-0.198-0.435-0.316-0.909-0.554s-2.807-1.385-3.242-1.543c-0.435-0.158-0.751-0.237-1.068,0.238c-0.316,0.474-1.225,1.543-1.502,1.859c-0.277,0.317-0.554,0.357-1.028,0.119c-0.474-0.238-2.002-0.738-3.815-2.354c-1.41-1.257-2.362-2.81-2.639-3.285c-0.277-0.474-0.03-0.731,0.208-0.968c0.213-0.213,0.474-0.554,0.712-0.831c0.237-0.277,0.316-0.475,0.474-0.791c0.158-0.317,0.079-0.594-0.04-0.831C20.612,19.329,19.69,16.983,19.268,16.045z"/>
</symbol><symbol id="wherehouse" viewBox="0 0 256.7 198.57" xmlns="http://www.w3.org/2000/svg">
    <defs>
        <style>.mcls-1{fill:none;stroke:#231f20;stroke-linecap:round;stroke-linejoin:round;stroke-width:2px;}</style>
    </defs>
    <path class="mcls-1" d="M124.61,53.77,80.16,87.24a1.81,1.81,0,0,0,1.09,3.26H168a1.81,1.81,0,0,0,1.09-3.26Z"/>
    <line class="mcls-1" x1="88.38" y1="91.32" x2="88.38" y2="130.56"/>
    <line class="mcls-1" x1="160.84" y1="91.32" x2="160.84" y2="130.56"/>
    <line class="mcls-1" x1="94.43" y1="91.32" x2="94.43" y2="130.56"/>
    <line class="mcls-1" x1="154.78" y1="91.32" x2="154.78" y2="130.56"/>
    <rect class="mcls-1" x="108.99" y="114.94" width="15.62" height="15.62"/>
    <rect class="mcls-1" x="124.61" y="114.94" width="15.62" height="15.62"/>
    <rect class="mcls-1" x="116.8" y="99.32" width="15.62" height="15.62"/>
    <polyline class="mcls-1" points="122.44 99.32 122.44 104.18 126.77 104.18 126.77 99.32"/>
    <polyline class="mcls-1" points="114.57 114.94 114.57 119.8 118.9 119.8 118.9 114.94"/>
    <polyline class="mcls-1" points="134.65 114.94 134.65 119.8 130.31 119.8 130.31 114.94"/>
    <polyline class="mcls-1" points="127.65 84.58 124.61 84.58 121.56 84.58"/>
    <polyline class="mcls-1" points="110.89 84.58 107.85 84.58 104.8 84.58"/>
    <polyline class="mcls-1" points="138.32 84.58 141.37 84.58 144.41 84.58"/>
    <line class="mcls-1" x1="79.89" y1="130.56" x2="169.32" y2="130.56"/>
</symbol></svg>