<?xml version="1.0" encoding="utf-8"?><!DOCTYPE svg PUBLIC "-//W3C//DTD SVG 1.1//EN" "http://www.w3.org/Graphics/SVG/1.1/DTD/svg11.dtd"><svg xmlns="http://www.w3.org/2000/svg" xmlns:xlink="http://www.w3.org/1999/xlink"><symbol viewBox="0 -960 960 960" id="boat" xmlns="http://www.w3.org/2000/svg">
    <path d="M156-200 82-457q-4-12 1.5-23.5T101-496l59-20v-224q0-25 17.5-42t42.5-18h150v-90q0-12.75 8.63-21.38Q387.25-920 400-920h160q12.75 0 21.38 8.62Q590-902.75 590-890v90h150q24.75 0 42.38 17.62Q800-764.75 800-740v225l60 19q11 4 16.5 15t1.5 23l-74 258q-39-4-76-22t-66-44q-8.85-8-20.93-8-12.07 0-20.07 9-27 28-64 46.5T480.42-200Q470-200 461-201.1q-9-1.1-18-3.3-29-6.6-55-23.1T339-265q-8-9-20.5-9t-21.5 8q-29 26-65.5 44T156-200ZM480-40q-39 0-80-10.5T320-81q-39 20-79 30.5T160-40h-50q-12.75 0-21.37-8.68Q80-57.35 80-70.18 80-83 88.63-91.5 97.25-100 110-100h50q39 0 75.5-10.5T305-141q7.19-5 15.09-5 7.91 0 14.91 5 26 15 54.5 24t57.5 13q7.69 1 16.35 1.5 8.65.5 16.93.5 37.24 0 74.48-9.5T625-141q7.19-4 15.09-4 7.91 0 14.91 4 33 20 69.5 30.5T800-100h50q12.75 0 21.38 8.68 8.62 8.67 8.62 21.5 0 12.82-8.62 21.32Q862.75-40 850-40h-50q-41 0-81-10.5T640-81q-39 20-80 30.5T480-40ZM220-535l241-78q9.16-3 19.08-3 9.92 0 18.92 3l241 79v-206H220v205Zm260.25 275q33.75 0 62.25-19t51.5-44q19-20 47-20.5t48 19.5q17 16 35 30t38 25l51-179-333-108-334 108 52 177q20.07-11.24 37.04-23.89Q252.02-307.54 269-323q21-20 49.03-20.5Q346.05-344 365-324q17 17 35 32t41 24q10 4 19.56 6 9.57 2 19.69 2ZM480-408Z"/>
</symbol><symbol viewBox="0 0 16 16" id="boat1" xmlns="http://www.w3.org/2000/svg">
    <g id="bSVGRepo_bgCarrier" stroke-width="0"/>
    <g id="bSVGRepo_tracerCarrier" stroke-linecap="round" stroke-linejoin="round"/>
    <g id="bSVGRepo_iconCarrier">
        <path d="M1.5 9.6c1.1 0.7 2.5 1.9 2.5 3.3 0 0.4 0 0.7 0 1.1 0 0 0.1 0 0.1 0s0.9 0 2-1c1 1 2 1 2 1s1 0 2-1c1 1 1.9 1 1.9 1s0.1 0 0.1 0c0-0.3 0-0.7 0-1.1 0-1.4 1.4-2.6 2.5-3.3 0.6-0.4 0.5-1.2-0.2-1.4l-1.4-0.4v-3.8h-1v-1h-3v-2h-2v2h-3v1h-1v3.8l-1.3 0.4c-0.8 0.2-0.8 1-0.2 1.4zM4 5h1v-1h6v1h1v2.5l-3.3-1c-0.5-0.1-1-0.1-1.5 0l-3.2 1v-2.5z"/>
        <path d="M14 14c-1 1-2 1-2 1s-1 0-2-1c-1 1-2 1-2 1s-1 0-2-1c-1 1-2 1-2 1s-1 0-2-1c-1 1-2 1-2 1v1h16v-1c0 0-1 0-2-1z"/>
    </g>
</symbol><symbol viewBox="0 0 16 16" id="boat2" xmlns="http://www.w3.org/2000/svg">
    <path d="M1.5 9.6c1.1 0.7 2.5 1.9 2.5 3.3 0 0.4 0 0.7 0 1.1 0 0 0.1 0 0.1 0s0.9 0 2-1c1 1 2 1 2 1s1 0 2-1c1 1 1.9 1 1.9 1s0.1 0 0.1 0c0-0.3 0-0.7 0-1.1 0-1.4 1.4-2.6 2.5-3.3 0.6-0.4 0.5-1.2-0.2-1.4l-1.4-0.4v-3.8h-1v-1h-3v-2h-2v2h-3v1h-1v3.8l-1.3 0.4c-0.8 0.2-0.8 1-0.2 1.4zM4 5h1v-1h6v1h1v2.5l-3.3-1c-0.5-0.1-1-0.1-1.5 0l-3.2 1v-2.5z"/>
    <path d="M14 14c-1 1-2 1-2 1s-1 0-2-1c-1 1-2 1-2 1s-1 0-2-1c-1 1-2 1-2 1s-1 0-2-1c-1 1-2 1-2 1v1h16v-1c0 0-1 0-2-1z"/>
</symbol><symbol id="email" viewBox="0 0 491.52 491.52" xml:space="preserve" xmlns="http://www.w3.org/2000/svg">
    <rect y="85.914" style="fill:#F6C358" width="491.52" height="319.693"/>
    <polygon style="fill:#FCD462" points="245.76,217.258 491.52,405.604 0,405.604 "/>
    <polygon style="fill:#DC8744" points="245.76,291.673 0,85.916 491.52,85.916 "/>
    <polygon style="fill:#FCD462" points="245.76,274.261 0,85.916 491.52,85.916 "/>
</symbol><symbol viewBox="0 0 48 48" id="facebook" xmlns="http://www.w3.org/2000/svg">
    <circle style="fill:#039BE5" cx="24" cy="24" r="19"/>
    <g>
        <path style="fill:#FFFFFF" d="M26.572,29.036h4.917l0.772-4.995h-5.69v-2.73c0-2.075,0.678-3.915,2.619-3.915h3.119v-4.359c-0.548-0.074-1.707-0.236-3.897-0.236c-4.573,0-7.254,2.415-7.254,7.917v3.323h-4.701v4.995h4.701v13.729C22.089,42.905,23.032,43,24,43c0.875,0,1.729-0.08,2.572-0.194V29.036z"/>
    </g>
</symbol><symbol viewBox="0 0 24 24" id="move_to_inbox" xmlns="http://www.w3.org/2000/svg">
<!--<path d="M0 0h24v24H0V0z" fill="none"/>-->
    <path d="M16 9h-2.55V6h-2.9v3H8l4 4zm3-6H4.99C3.88 3 3 3.9 3 5v14c0 1.1.88 2 1.99 2H19c1.1 0 2-.9 2-2V5c0-1.1-.9-2-2-2zm0 16H5v-3h3.56c.69 1.19 1.97 2 3.45 2s2.75-.81 3.45-2H19v3zm0-5h-4.99c0 1.1-.9 2-2 2s-2-.9-2-2H5l-.01-9H19v9z"/>
</symbol><symbol viewBox="0 0 48 48" id="telegram-app" xmlns="http://www.w3.org/2000/svg">
    <circle style="fill:#29B6F6" cx="24" cy="24" r="20"/>
    <path style="fill:#FFFFFF" d="M33.95,15l-3.746,19.126c0,0-0.161,0.874-1.245,0.874c-0.576,0-0.873-0.274-0.873-0.274l-8.114-6.733  l-3.97-2.001l-5.095-1.355c0,0-0.907-0.262-0.907-1.012c0-0.625,0.933-0.923,0.933-0.923l21.316-8.468  c-0.001-0.001,0.651-0.235,1.126-0.234C33.667,14,34,14.125,34,14.5C34,14.75,33.95,15,33.95,15z"/>
    <path style="fill:#B0BEC5" d="M23,30.505l-3.426,3.374c0,0-0.149,0.115-0.348,0.12c-0.069,0.002-0.143-0.009-0.219-0.043  l0.964-5.965L23,30.505z"/>
    <path style="fill:#CFD8DC" d="M29.897,18.196c-0.169-0.22-0.481-0.26-0.701-0.093L16,26c0,0,2.106,5.892,2.427,6.912  c0.322,1.021,0.58,1.045,0.58,1.045l0.964-5.965l9.832-9.096C30.023,18.729,30.064,18.416,29.897,18.196z"/>
</symbol><symbol enable-background="new 0 0 20 20" viewBox="0 0 20 20" id="warehouse" xmlns="http://www.w3.org/2000/svg">
<!--<g>
    <rect fill="none" height="20" width="20" x="0"/>
  </g>-->
    <g>
        <path d="M13.5,17H18V6l-8-3L2,6v11h4.5v-6.5h7V17z M16.5,7.04v8.46H15V9H5v6.5H3.5V7.04L10,4.6L16.5,7.04z M9.25,17h-1.5v-1.5h1.5 V17z M10.75,14.5h-1.5V13h1.5V14.5z M12.25,17h-1.5v-1.5h1.5V17z"/>
    </g>
</symbol><symbol viewBox="0 0 48 48" id="whatsapp" xmlns="http://www.w3.org/2000/svg">
    <path style="fill:#FFFFFF" d="M4.868,43.303l2.694-9.835C5.9,30.59,5.026,27.324,5.027,23.979C5.032,13.514,13.548,5,24.014,5c5.079,0.002,9.845,1.979,13.43,5.566c3.584,3.588,5.558,8.356,5.556,13.428c-0.004,10.465-8.522,18.98-18.986,18.98c-0.001,0,0,0,0,0h-0.008c-3.177-0.001-6.3-0.798-9.073-2.311L4.868,43.303z"/>
    <g>
        <path style="fill:#FFFFFF" d="M4.868,43.803c-0.132,0-0.26-0.052-0.355-0.148c-0.125-0.127-0.174-0.312-0.127-0.483l2.639-9.636c-1.636-2.906-2.499-6.206-2.497-9.556C4.532,13.238,13.273,4.5,24.014,4.5c5.21,0.002,10.105,2.031,13.784,5.713c3.679,3.683,5.704,8.577,5.702,13.781c-0.004,10.741-8.746,19.48-19.486,19.48c-3.189-0.001-6.344-0.788-9.144-2.277l-9.875,2.589C4.953,43.798,4.911,43.803,4.868,43.803z"/>
        <path style="fill:#CFD8DC" d="M24.014,5c5.079,0.002,9.845,1.979,13.43,5.566c3.584,3.588,5.558,8.356,5.556,13.428c-0.004,10.465-8.522,18.98-18.986,18.98h-0.008c-3.177-0.001-6.3-0.798-9.073-2.311L4.868,43.303l2.694-9.835C5.9,30.59,5.026,27.324,5.027,23.979C5.032,13.514,13.548,5,24.014,5 M24.014,42.974C24.014,42.974,24.014,42.974,24.014,42.974C24.014,42.974,24.014,42.974,24.014,42.974 M24.014,42.974C24.014,42.974,24.014,42.974,24.014,42.974C24.014,42.974,24.014,42.974,24.014,42.974 M24.014,4C24.014,4,24.014,4,24.014,4C12.998,4,4.032,12.962,4.027,23.979c-0.001,3.367,0.849,6.685,2.461,9.622l-2.585,9.439c-0.094,0.345,0.002,0.713,0.254,0.967c0.19,0.192,0.447,0.297,0.711,0.297c0.085,0,0.17-0.011,0.254-0.033l9.687-2.54c2.828,1.468,5.998,2.243,9.197,2.244c11.024,0,19.99-8.963,19.995-19.98c0.002-5.339-2.075-10.359-5.848-14.135C34.378,6.083,29.357,4.002,24.014,4L24.014,4z"/>
    </g>
    <path style="fill:#40C351" d="M35.176,12.832c-2.98-2.982-6.941-4.625-11.157-4.626c-8.704,0-15.783,7.076-15.787,15.774c-0.001,2.981,0.833,5.883,2.413,8.396l0.376,0.597l-1.595,5.821l5.973-1.566l0.577,0.342c2.422,1.438,5.2,2.198,8.032,2.199h0.006c8.698,0,15.777-7.077,15.78-15.776C39.795,19.778,38.156,15.814,35.176,12.832z"/>
    <path style="fill-rule:evenodd;clip-rule:evenodd;fill:#FFFFFF" d="M19.268,16.045c-0.355-0.79-0.729-0.806-1.068-0.82c-0.277-0.012-0.593-0.011-0.909-0.011c-0.316,0-0.83,0.119-1.265,0.594c-0.435,0.475-1.661,1.622-1.661,3.956c0,2.334,1.7,4.59,1.937,4.906c0.237,0.316,3.282,5.259,8.104,7.161c4.007,1.58,4.823,1.266,5.693,1.187c0.87-0.079,2.807-1.147,3.202-2.255c0.395-1.108,0.395-2.057,0.277-2.255c-0.119-0.198-0.435-0.316-0.909-0.554s-2.807-1.385-3.242-1.543c-0.435-0.158-0.751-0.237-1.068,0.238c-0.316,0.474-1.225,1.543-1.502,1.859c-0.277,0.317-0.554,0.357-1.028,0.119c-0.474-0.238-2.002-0.738-3.815-2.354c-1.41-1.257-2.362-2.81-2.639-3.285c-0.277-0.474-0.03-0.731,0.208-0.968c0.213-0.213,0.474-0.554,0.712-0.831c0.237-0.277,0.316-0.475,0.474-0.791c0.158-0.317,0.079-0.594-0.04-0.831C20.612,19.329,19.69,16.983,19.268,16.045z"/>
</symbol></svg>