<?xml version="1.0" encoding="utf-8"?><svg viewBox="0 0 512 512" xmlns="http://www.w3.org/2000/svg" xmlns:xlink="http://www.w3.org/1999/xlink"><style>:root>svg{display:none}:root>svg:target{display:block}</style><svg viewBox="0 0 24 24" id="anchor" xmlns="http://www.w3.org/2000/svg"><path d="m17 15 1.55 1.55c-.96 1.69-3.33 3.04-5.55 3.37V11h3V9h-3V7.82C14.16 7.4 15 6.3 15 5c0-1.65-1.35-3-3-3S9 3.35 9 5c0 1.3.84 2.4 2 2.82V9H8v2h3v8.92c-2.22-.33-4.59-1.68-5.55-3.37L7 15l-4-3v3c0 3.88 4.92 7 9 7s9-3.12 9-7v-3l-4 3zM12 4c.55 0 1 .45 1 1s-.45 1-1 1-1-.45-1-1 .45-1 1-1z"/></svg><svg viewBox="0 -960 960 960" id="boat" xmlns="http://www.w3.org/2000/svg"><path d="M156-200 82-457q-4-12 1.5-23.5T101-496l59-20v-224q0-25 17.5-42t42.5-18h150v-90q0-12.75 8.63-21.38Q387.25-920 400-920h160q12.75 0 21.38 8.62Q590-902.75 590-890v90h150q24.75 0 42.38 17.62Q800-764.75 800-740v225l60 19q11 4 16.5 15t1.5 23l-74 258q-39-4-76-22t-66-44q-8.85-8-20.93-8-12.07 0-20.07 9-27 28-64 46.5T480.42-200Q470-200 461-201.1q-9-1.1-18-3.3-29-6.6-55-23.1T339-265q-8-9-20.5-9t-21.5 8q-29 26-65.5 44T156-200ZM480-40q-39 0-80-10.5T320-81q-39 20-79 30.5T160-40h-50q-12.75 0-21.37-8.68Q80-57.35 80-70.18 80-83 88.63-91.5 97.25-100 110-100h50q39 0 75.5-10.5T305-141q7.19-5 15.09-5 7.91 0 14.91 5 26 15 54.5 24t57.5 13q7.69 1 16.35 1.5 8.65.5 16.93.5 37.24 0 74.48-9.5T625-141q7.19-4 15.09-4 7.91 0 14.91 4 33 20 69.5 30.5T800-100h50q12.75 0 21.38 8.68 8.62 8.67 8.62 21.5 0 12.82-8.62 21.32Q862.75-40 850-40h-50q-41 0-81-10.5T640-81q-39 20-80 30.5T480-40ZM220-535l241-78q9.16-3 19.08-3 9.92 0 18.92 3l241 79v-206H220v205Zm260.25 275q33.75 0 62.25-19t51.5-44q19-20 47-20.5t48 19.5q17 16 35 30t38 25l51-179-333-108-334 108 52 177q20.07-11.24 37.04-23.89Q252.02-307.54 269-323q21-20 49.03-20.5Q346.05-344 365-324q17 17 35 32t41 24q10 4 19.56 6 9.57 2 19.69 2ZM480-408Z"/></svg><svg xml:space="preserve" viewBox="0 0 492 406" id="email" xmlns="http://www.w3.org/2000/svg"><path style="fill:#f6c358" d="M0 85.914h491.52v319.693H0z"/><path style="fill:#fcd462" d="m245.76 217.258 245.76 188.346H0z"/><path style="fill:#dc8744" d="M245.76 291.673 0 85.916h491.52z"/><path style="fill:#fcd462" d="M245.76 274.261 0 85.916h491.52z"/></svg><svg xml:space="preserve" viewBox="0 0 491.52 319.693" id="email2" xmlns="http://www.w3.org/2000/svg"><path style="fill:#f6c358" d="M0 0h491.52v319.693H0z"/><path style="fill:#fcd462" d="M245.76 131.344 491.52 319.69H0z"/><path style="fill:#dc8744" d="M245.76 205.759 0 0h491.52z"/><path style="fill:#fcd462" d="M245.76 188.347 0 0h491.52z"/></svg><svg viewBox="0 0 48 48" id="facebook" xmlns="http://www.w3.org/2000/svg"><circle style="fill:#039be5" cx="24" cy="24" r="19"/><path style="fill:#fff" d="M26.572 29.036h4.917l.772-4.995h-5.69v-2.73c0-2.075.678-3.915 2.619-3.915h3.119v-4.359c-.548-.074-1.707-.236-3.897-.236-4.573 0-7.254 2.415-7.254 7.917v3.323h-4.701v4.995h4.701v13.729c.931.14 1.874.235 2.842.235.875 0 1.729-.08 2.572-.194v-13.77z"/></svg><svg viewBox="0 0 24 24" id="move_to_inbox" xmlns="http://www.w3.org/2000/svg"><path d="M16 9h-2.55V6h-2.9v3H8l4 4zm3-6H4.99C3.88 3 3 3.9 3 5v14c0 1.1.88 2 1.99 2H19c1.1 0 2-.9 2-2V5c0-1.1-.9-2-2-2zm0 16H5v-3h3.56c.69 1.19 1.97 2 3.45 2s2.75-.81 3.45-2H19v3zm0-5h-4.99c0 1.1-.9 2-2 2s-2-.9-2-2H5l-.01-9H19v9z"/></svg><svg viewBox="0 0 512 512" fill="#FFF" id="phone" xmlns="http://www.w3.org/2000/svg"><path d="M164.9 24.6c-7.7-18.6-28-28.5-47.4-23.2l-88 24C12.1 30.2 0 46 0 64c0 247.4 200.6 448 448 448 18 0 33.8-12.1 38.6-29.5l24-88c5.3-19.4-4.6-39.7-23.2-47.4l-96-40c-16.3-6.8-35.2-2.1-46.3 11.6L304.7 368c-70.4-33.3-127.4-90.3-160.7-160.7l49.3-40.3c13.7-11.2 18.4-30 11.6-46.3l-40-96z"/></svg><svg viewBox="0 0 24 24" id="reload" xmlns="http://www.w3.org/2000/svg"><path d="M12 6v1.79c0 .45.54.67.85.35l2.79-2.79c.2-.2.2-.51 0-.71l-2.79-2.79a.5.5 0 0 0-.85.36V4c-4.42 0-8 3.58-8 8 0 1.04.2 2.04.57 2.95.27.67 1.13.85 1.64.34.27-.27.38-.68.23-1.04C6.15 13.56 6 12.79 6 12c0-3.31 2.69-6 6-6zm5.79 2.71c-.27.27-.38.69-.23 1.04.28.7.44 1.46.44 2.25 0 3.31-2.69 6-6 6v-1.79c0-.45-.54-.67-.85-.35l-2.79 2.79c-.2.2-.2.51 0 .71l2.79 2.79a.5.5 0 0 0 .85-.35V20c4.42 0 8-3.58 8-8 0-1.04-.2-2.04-.57-2.95-.27-.67-1.13-.85-1.64-.34z"/></svg><svg viewBox="0 0 48 48" id="telegram-app" xmlns="http://www.w3.org/2000/svg"><circle style="fill:#29b6f6" cx="24" cy="24" r="20"/><path style="fill:#fff" d="m33.95 15-3.746 19.126s-.161.874-1.245.874c-.576 0-.873-.274-.873-.274l-8.114-6.733-3.97-2.001-5.095-1.355S10 24.375 10 23.625c0-.625.933-.923.933-.923l21.316-8.468c-.001-.001.651-.235 1.126-.234.292 0 .625.125.625.5 0 .25-.05.5-.05.5z"/><path style="fill:#b0bec5" d="m23 30.505-3.426 3.374s-.149.115-.348.12a.494.494 0 0 1-.219-.043l.964-5.965L23 30.505z"/><path style="fill:#cfd8dc" d="M29.897 18.196a.5.5 0 0 0-.701-.093L16 26s2.106 5.892 2.427 6.912c.322 1.021.58 1.045.58 1.045l.964-5.965 9.832-9.096a.499.499 0 0 0 .094-.7z"/></svg><svg viewBox="0 0 48 48" id="telegram2" xmlns="http://www.w3.org/2000/svg"><circle style="fill:#29b6f6" cx="24" cy="24" r="20"/><path style="fill:#fff" d="m33.95 15-3.746 19.126s-.161.874-1.245.874c-.576 0-.873-.274-.873-.274l-8.114-6.733-3.97-2.001-5.095-1.355S10 24.375 10 23.625c0-.625.933-.923.933-.923l21.316-8.468c-.001-.001.651-.235 1.126-.234.292 0 .625.125.625.5 0 .25-.05.5-.05.5z"/><path style="fill:#b0bec5" d="m23 30.505-3.426 3.374s-.149.115-.348.12a.494.494 0 0 1-.219-.043l.964-5.965L23 30.505z"/><path style="fill:#cfd8dc" d="M29.897 18.196a.5.5 0 0 0-.701-.093L16 26s2.106 5.892 2.427 6.912c.322 1.021.58 1.045.58 1.045l.964-5.965 9.832-9.096a.499.499 0 0 0 .094-.7z"/></svg><svg viewBox="0 0 24 24" fill="#FFF" id="truck" xmlns="http://www.w3.org/2000/svg"><path d="M19.5 8H17V6c0-1.1-.9-2-2-2H3c-1.1 0-2 .9-2 2v9c0 1.1.9 2 2 2 0 1.66 1.34 3 3 3s3-1.34 3-3h6c0 1.66 1.34 3 3 3s3-1.34 3-3h1c.55 0 1-.45 1-1v-3.33c0-.43-.14-.85-.4-1.2L20.3 8.4c-.19-.25-.49-.4-.8-.4zM6 18c-.55 0-1-.45-1-1s.45-1 1-1 1 .45 1 1-.45 1-1 1zm13.5-8.5 1.96 2.5H17V9.5h2.5zM18 18c-.55 0-1-.45-1-1s.45-1 1-1 1 .45 1 1-.45 1-1 1z"/></svg><svg viewBox="0 0 20 20" id="warehouse" xmlns="http://www.w3.org/2000/svg"><path d="M13.5 17H18V6l-8-3-8 3v11h4.5v-6.5h7V17zm3-9.96v8.46H15V9H5v6.5H3.5V7.04L10 4.6l6.5 2.44zM9.25 17h-1.5v-1.5h1.5V17zm1.5-2.5h-1.5V13h1.5v1.5zm1.5 2.5h-1.5v-1.5h1.5V17z"/></svg><svg viewBox="0 0 48 48" id="whatsapp" xmlns="http://www.w3.org/2000/svg"><path style="fill:#fff" d="m4.868 43.303 2.694-9.835a18.941 18.941 0 0 1-2.535-9.489C5.032 13.514 13.548 5 24.014 5a18.867 18.867 0 0 1 13.43 5.566A18.866 18.866 0 0 1 43 23.994c-.004 10.465-8.522 18.98-18.986 18.98-.001 0 0 0 0 0h-.008a18.965 18.965 0 0 1-9.073-2.311l-10.065 2.64z"/><path style="fill:#fff" d="M4.868 43.803a.499.499 0 0 1-.482-.631l2.639-9.636a19.48 19.48 0 0 1-2.497-9.556C4.532 13.238 13.273 4.5 24.014 4.5a19.367 19.367 0 0 1 13.784 5.713A19.362 19.362 0 0 1 43.5 23.994c-.004 10.741-8.746 19.48-19.486 19.48a19.535 19.535 0 0 1-9.144-2.277l-9.875 2.589a.457.457 0 0 1-.127.017z"/><path style="fill:#cfd8dc" d="M24.014 5a18.867 18.867 0 0 1 13.43 5.566A18.866 18.866 0 0 1 43 23.994c-.004 10.465-8.522 18.98-18.986 18.98h-.008a18.965 18.965 0 0 1-9.073-2.311l-10.065 2.64 2.694-9.835a18.941 18.941 0 0 1-2.535-9.489C5.032 13.514 13.548 5 24.014 5m0-1C12.998 4 4.032 12.962 4.027 23.979a20.01 20.01 0 0 0 2.461 9.622L3.903 43.04a.998.998 0 0 0 1.219 1.231l9.687-2.54a20.026 20.026 0 0 0 9.197 2.244c11.024 0 19.99-8.963 19.995-19.98A19.856 19.856 0 0 0 38.153 9.86 19.869 19.869 0 0 0 24.014 4z"/><path style="fill:#40c351" d="M35.176 12.832a15.673 15.673 0 0 0-11.157-4.626c-8.704 0-15.783 7.076-15.787 15.774a15.738 15.738 0 0 0 2.413 8.396l.376.597-1.595 5.821 5.973-1.566.577.342a15.75 15.75 0 0 0 8.032 2.199h.006c8.698 0 15.777-7.077 15.78-15.776a15.68 15.68 0 0 0-4.618-11.161z"/><path style="fill-rule:evenodd;clip-rule:evenodd;fill:#fff" d="M19.268 16.045c-.355-.79-.729-.806-1.068-.82-.277-.012-.593-.011-.909-.011-.316 0-.83.119-1.265.594-.435.475-1.661 1.622-1.661 3.956 0 2.334 1.7 4.59 1.937 4.906.237.316 3.282 5.259 8.104 7.161 4.007 1.58 4.823 1.266 5.693 1.187.87-.079 2.807-1.147 3.202-2.255.395-1.108.395-2.057.277-2.255-.119-.198-.435-.316-.909-.554s-2.807-1.385-3.242-1.543c-.435-.158-.751-.237-1.068.238-.316.474-1.225 1.543-1.502 1.859-.277.317-.554.357-1.028.119s-2.002-.738-3.815-2.354c-1.41-1.257-2.362-2.81-2.639-3.285-.277-.474-.03-.731.208-.968.213-.213.474-.554.712-.831.237-.277.316-.475.474-.791.158-.317.079-.594-.04-.831-.117-.238-1.039-2.584-1.461-3.522z"/></svg></svg>