<?xml version="1.0" encoding="utf-8"?><svg viewBox="0 0 491.52 491.52" xmlns="http://www.w3.org/2000/svg" xmlns:xlink="http://www.w3.org/1999/xlink"><style>:root>svg{display:none}:root>svg:target{display:block}</style><svg viewBox="0 -960 960 960" id="boat" xmlns="http://www.w3.org/2000/svg">
    <path d="M156-200 82-457q-4-12 1.5-23.5T101-496l59-20v-224q0-25 17.5-42t42.5-18h150v-90q0-12.75 8.63-21.38Q387.25-920 400-920h160q12.75 0 21.38 8.62Q590-902.75 590-890v90h150q24.75 0 42.38 17.62Q800-764.75 800-740v225l60 19q11 4 16.5 15t1.5 23l-74 258q-39-4-76-22t-66-44q-8.85-8-20.93-8-12.07 0-20.07 9-27 28-64 46.5T480.42-200Q470-200 461-201.1q-9-1.1-18-3.3-29-6.6-55-23.1T339-265q-8-9-20.5-9t-21.5 8q-29 26-65.5 44T156-200ZM480-40q-39 0-80-10.5T320-81q-39 20-79 30.5T160-40h-50q-12.75 0-21.37-8.68Q80-57.35 80-70.18 80-83 88.63-91.5 97.25-100 110-100h50q39 0 75.5-10.5T305-141q7.19-5 15.09-5 7.91 0 14.91 5 26 15 54.5 24t57.5 13q7.69 1 16.35 1.5 8.65.5 16.93.5 37.24 0 74.48-9.5T625-141q7.19-4 15.09-4 7.91 0 14.91 4 33 20 69.5 30.5T800-100h50q12.75 0 21.38 8.68 8.62 8.67 8.62 21.5 0 12.82-8.62 21.32Q862.75-40 850-40h-50q-41 0-81-10.5T640-81q-39 20-80 30.5T480-40ZM220-535l241-78q9.16-3 19.08-3 9.92 0 18.92 3l241 79v-206H220v205Zm260.25 275q33.75 0 62.25-19t51.5-44q19-20 47-20.5t48 19.5q17 16 35 30t38 25l51-179-333-108-334 108 52 177q20.07-11.24 37.04-23.89Q252.02-307.54 269-323q21-20 49.03-20.5Q346.05-344 365-324q17 17 35 32t41 24q10 4 19.56 6 9.57 2 19.69 2ZM480-408Z"/>
</svg><svg id="cargo_ship" data-name="Layer 1" viewBox="0 0 247.42 156.91" xmlns="http://www.w3.org/2000/svg">
    <defs>
        <style>.bcls-1{fill:none;stroke:#231f20;stroke-linecap:round;stroke-linejoin:round;stroke-width:2px}</style>
    </defs>
    <path class="bcls-1" d="M149.42 90.37v0a9.57 9.57 0 0 1-8.88 6H65.31s2.29 11.63 7.58 15.11h0V117h67.7c33.61 0 41.53-31 41.53-31h-26.19a7 7 0 0 0-6.51 4.37Z"/>
    <path class="bcls-1" d="M76.6 79.97h24.48v16.45H76.6zM84.62 68.62h16.45v11.34H84.62zM80.71 64.08h23.42v4.54H80.71zM101.08 64.08V51.29M96.89 64.08v-8.99M111.51 85.63h25.02v10.78h-25.02zM111.51 74.85h25.02v10.78h-25.02z"/>
    <path class="bcls-1" d="M136.53 68.16h32.8v14.13h-32.8zM169.33 85.95v-3.66h-32.79v14.13M97.15 73.22h-8.6M97.15 86.27H79.96M79.42 105.51a.8.8 0 1 1-.79-.79.79.79 0 0 1 .79.79ZM86.57 105.51a.79.79 0 1 1-.79-.79.79.79 0 0 1 .79.79ZM93.73 105.51a.79.79 0 0 1-.79.79.79.79 0 1 1 0-1.58.79.79 0 0 1 .79.79ZM100.89 105.51a.79.79 0 0 1-.8.79.79.79 0 1 1 0-1.58.79.79 0 0 1 .8.79Z"/>
</svg><svg data-name="Layer 1" viewBox="0 0 247.42 161.99" id="delivery_truck" xmlns="http://www.w3.org/2000/svg">
    <path class="ccls-1" d="M141.25 94.71h-6V62.14h17.65a7.29 7.29 0 0 1 6.34 3.71l5.55 9.86 6.75 2.68a2.34 2.34 0 0 1 1.46 2.17v9.76M160.33 94.71H173.02M75.68 80.25v14.46h5.26M100.88 94.71H130V56.56a5.65 5.65 0 0 0-5.65-5.66H75.68v9.54M130.04 94.71h5.22M143.89 79.96h3.48"/>
    <path class="ccls-1" d="M173.02 94.71h2.76v-4.39h-10.46v4.39"/>
    <circle class="ccls-1" cx="152.37" cy="94.71" r="7.95" transform="rotate(-45 152.369 94.707)"/>
    <path class="ccls-1" d="M154.57 94.71a2.2 2.2 0 1 1-2.2-2.19 2.2 2.2 0 0 1 2.2 2.19ZM94.64 94.71a2.2 2.2 0 1 1-2.19-2.19 2.2 2.2 0 0 1 2.19 2.19Z"/>
    <circle class="ccls-1" cx="92.45" cy="94.71" r="7.95" transform="rotate(-22.5 92.452 94.72)"/>
    <path class="ccls-1" d="M164.8 75.71h-29.54M139.51 62.14l1.74 32.57M68.38 60.44h-1.91M91.65 60.44H72.36M64.27 75.71h-1.91M87.54 75.71H68.25M66.18 68.08h-1.91M89.45 68.08H70.16"/>
</svg><svg viewBox="0 0 491.52 491.52" xml:space="preserve" id="email" xmlns="http://www.w3.org/2000/svg">
    <path style="fill:#f6c358" d="M0 85.914h491.52v319.693H0z"/>
    <path style="fill:#fcd462" d="m245.76 217.258 245.76 188.346H0z"/>
    <path style="fill:#dc8744" d="M245.76 291.673 0 85.916h491.52z"/>
    <path style="fill:#fcd462" d="M245.76 274.261 0 85.916h491.52z"/>
</svg><svg viewBox="0 0 48 48" id="facebook" xmlns="http://www.w3.org/2000/svg">
    <circle style="fill:#039be5" cx="24" cy="24" r="19"/>
    <path style="fill:#fff" d="M26.572 29.036h4.917l.772-4.995h-5.69v-2.73c0-2.075.678-3.915 2.619-3.915h3.119v-4.359c-.548-.074-1.707-.236-3.897-.236-4.573 0-7.254 2.415-7.254 7.917v3.323h-4.701v4.995h4.701v13.729c.931.14 1.874.235 2.842.235.875 0 1.729-.08 2.572-.194v-13.77z"/>
</svg><svg id="loader_car" data-name="Layer 1" viewBox="0 0 186.6 178.24" xmlns="http://www.w3.org/2000/svg">
    <defs>
        <style>.fcls-1{fill:none;stroke:#231f20;stroke-linecap:round;stroke-linejoin:round;stroke-width:2px}</style>
    </defs>
    <path class="fcls-1" d="M106.88 113.89H96.9"/>
    <circle class="fcls-1" cx="83.84" cy="113.89" r="8.99" transform="rotate(-52.61 83.845 113.894)"/>
    <path class="fcls-1" d="M83.84 117.8a3.91 3.91 0 1 1 3.9-3.91 3.91 3.91 0 0 1-3.9 3.91Z"/>
    <circle class="fcls-1" cx="115.86" cy="113.89" r="8.99" transform="rotate(-45 115.855 113.891)"/>
    <path class="fcls-1" d="M115.86 117.8a3.91 3.91 0 1 1 3.91-3.91 3.91 3.91 0 0 1-3.91 3.91ZM67.41 55.36v63.91M67.41 119.27H34.19"/>
    <path class="fcls-1" d="M74.85 113.89h-3.66a3.79 3.79 0 0 1-3.78-3.79V92.19h12.06L83 78.25a21.68 21.68 0 0 1 21-16.42h8.85a3.8 3.8 0 0 1 3.8 3.8v17.68h0a8.21 8.21 0 0 1 8.21 8.2v8.35h3.65a3.78 3.78 0 0 1 3.79 3.78v6.46a3.79 3.79 0 0 1-3.79 3.79h-3.65M38.45 92.21h24.18v27.06H38.45z"/>
    <path class="fcls-1" d="M38.45 98h24.18v21.28H38.45zM79.47 92.19h37.17v-8.88M107.64 99.86h-2.15M124.85 99.86H112.2"/>
    <path class="fcls-1" d="M116.64 72.3h-1.86a7.3 7.3 0 0 0-7.22 6.2l-2.07 13.71M80.91 86.44l10.48 5.77M92.89 79.32l5.17 5.17M95.47 81.91l-7.88 7.88M53.03 115.47h5.24M53.03 112.01h5.24"/>
</svg><svg viewBox="0 0 24 24" id="move_to_inbox" xmlns="http://www.w3.org/2000/svg">
    <path d="M16 9h-2.55V6h-2.9v3H8l4 4zm3-6H4.99C3.88 3 3 3.9 3 5v14c0 1.1.88 2 1.99 2H19c1.1 0 2-.9 2-2V5c0-1.1-.9-2-2-2zm0 16H5v-3h3.56c.69 1.19 1.97 2 3.45 2s2.75-.81 3.45-2H19v3zm0-5h-4.99c0 1.1-.9 2-2 2s-2-.9-2-2H5l-.01-9H19v9z"/>
</svg><svg id="planet_around" data-name="Layer 1" viewBox="0 0 217.91 163.13" xmlns="http://www.w3.org/2000/svg">
    <defs>
        <style>.hcls-1{fill:none;stroke:#231f20;stroke-linecap:round;stroke-linejoin:round;stroke-width:2px}</style>
    </defs>
    <path class="hcls-1" d="M73 90.85a42.25 42.25 0 1 1 78.44-30.72M152.61 65.07a43 43 0 0 1 .63 7.32 42.25 42.25 0 0 1-78.32 22"/>
    <path class="hcls-1" d="M134.57 76.41c-1.13 21.45-11.26 38.22-23.57 38.22-9.2 0-17.17-9.34-21.09-23M89.06 88.34a71.58 71.58 0 0 1-1.75-16c0-23.33 10.61-42.24 23.69-42.24 12.8 0 23.23 18.13 23.66 40.79"/>
    <path class="hcls-1" d="M141.46 101.66A48.54 48.54 0 0 0 130.25 97a72.29 72.29 0 0 0-38.5 0 48.54 48.54 0 0 0-11.21 4.67M141.46 43.13a49.43 49.43 0 0 1-11.21 4.67A70.06 70.06 0 0 1 111 50.4a70.06 70.06 0 0 1-19.25-2.6 49.43 49.43 0 0 1-11.21-4.67M131.93 72.39H68.75M153.24 72.39h-15.08M105.11 83.74l2.06 6 7.38-9.74L103 77.25l2.09 6.49c-5.44 1.84-10.68 3.35-15.58 4.49A104.3 104.3 0 0 1 74 90.78c-9.43.74-15.92-.68-17.43-4.47-1.68-4.21 3.13-10.52 12.2-17.22M109.52 50.39h.02"/>
    <path class="hcls-1" d="M124.12 76.19c3.72-1.7 7.25-3.46 10.55-5.25l1-.55a111.71 111.71 0 0 0 16.21-10.63c7.27-5.9 11-11.34 9.46-15.1-1.67-4.19-12.08-5.91-23.16-4.59M111 91.2v23.43M111 30.15v49.02"/>
</svg><svg viewBox="0 0 48 48" id="telegram-app" xmlns="http://www.w3.org/2000/svg">
    <circle style="fill:#29b6f6" cx="24" cy="24" r="20"/>
    <path style="fill:#fff" d="m33.95 15-3.746 19.126s-.161.874-1.245.874c-.576 0-.873-.274-.873-.274l-8.114-6.733-3.97-2.001-5.095-1.355S10 24.375 10 23.625c0-.625.933-.923.933-.923l21.316-8.468c-.001-.001.651-.235 1.126-.234.292 0 .625.125.625.5 0 .25-.05.5-.05.5z"/>
    <path style="fill:#b0bec5" d="m23 30.505-3.426 3.374s-.149.115-.348.12a.494.494 0 0 1-.219-.043l.964-5.965L23 30.505z"/>
    <path style="fill:#cfd8dc" d="M29.897 18.196a.5.5 0 0 0-.701-.093L16 26s2.106 5.892 2.427 6.912c.322 1.021.58 1.045.58 1.045l.964-5.965 9.832-9.096a.499.499 0 0 0 .094-.7z"/>
</svg><svg id="truck" data-name="Layer 1" viewBox="0 0 261.86 160.82" xmlns="http://www.w3.org/2000/svg">
    <defs>
        <style>.jcls-1{fill:none;stroke:#231f20;stroke-linecap:round;stroke-linejoin:round;stroke-width:2px}</style>
    </defs>
    <path class="jcls-1" d="M98.93 87.82h61.35a4.4 4.4 0 0 1 4.4 4.4V113h0-70.15 0V92.21a4.4 4.4 0 0 1 4.4-4.39ZM89 113.19h81.2v8.46H89zM148.54 48.15h-37.87a6.09 6.09 0 0 0-6.09 6.09v33.58h50.05V54.24a6.09 6.09 0 0 0-6.09-6.09Z"/>
    <path class="jcls-1" d="M101.63 41.85h0a3 3 0 0 1 3 2.95v43h-5.9v-43a3 3 0 0 1 2.9-2.95ZM157.58 41.85h0a3 3 0 0 0-3 2.95v43h5.9v-43a3 3 0 0 0-2.9-2.95Z"/>
    <path class="jcls-1" d="M104.58 62.71h50.06v18.1h-50.06zM104.58 58.16h50.06v4.55h-50.06zM141 93.41h-22.8a3.13 3.13 0 0 0-3.13 3.13v16.65h29.07V96.54a3.13 3.13 0 0 0-3.14-3.13ZM121.33 107.08h16.55M121.33 100.5h16.55M106.16 121.64v4.79a3 3 0 0 1-3 3h-5.61a3 3 0 0 1-3-3v-4.79M164.68 121.64v4.79a3 3 0 0 1-3 3h-5.59a3 3 0 0 1-3-3v-4.79M151.58 106.16h6.19M107.63 106.16h-6.19"/>
    <rect class="jcls-1" x="165.43" y="64.35" width="6.84" height="14.99" rx="1.98"/>
    <path class="jcls-1" d="M168.85 64.35V62.1a2.3 2.3 0 0 0-2.29-2.29h-6"/>
    <rect class="jcls-1" x="86.94" y="64.35" width="6.84" height="14.99" rx="1.98"/>
    <path class="jcls-1" d="M90.36 64.35V62.1a2.3 2.3 0 0 1 2.29-2.29h6M129.61 62.71V80.8M138.78 65.98l-2.81 2.81M147.59 68.79l-7.86 7.86M114.06 65.98l-2.81 2.81M122.87 68.79l-7.86 7.86"/>
</svg><svg viewBox="0 0 20 20" id="warehouse" xmlns="http://www.w3.org/2000/svg">
    <path d="M13.5 17H18V6l-8-3-8 3v11h4.5v-6.5h7V17zm3-9.96v8.46H15V9H5v6.5H3.5V7.04L10 4.6l6.5 2.44zM9.25 17h-1.5v-1.5h1.5V17zm1.5-2.5h-1.5V13h1.5v1.5zm1.5 2.5h-1.5v-1.5h1.5V17z"/>
</svg><svg viewBox="0 0 48 48" id="whatsapp" xmlns="http://www.w3.org/2000/svg">
    <path style="fill:#fff" d="m4.868 43.303 2.694-9.835a18.941 18.941 0 0 1-2.535-9.489C5.032 13.514 13.548 5 24.014 5a18.867 18.867 0 0 1 13.43 5.566A18.866 18.866 0 0 1 43 23.994c-.004 10.465-8.522 18.98-18.986 18.98-.001 0 0 0 0 0h-.008a18.965 18.965 0 0 1-9.073-2.311l-10.065 2.64z"/>
    <path style="fill:#fff" d="M4.868 43.803a.499.499 0 0 1-.482-.631l2.639-9.636a19.48 19.48 0 0 1-2.497-9.556C4.532 13.238 13.273 4.5 24.014 4.5a19.367 19.367 0 0 1 13.784 5.713A19.362 19.362 0 0 1 43.5 23.994c-.004 10.741-8.746 19.48-19.486 19.48a19.535 19.535 0 0 1-9.144-2.277l-9.875 2.589a.457.457 0 0 1-.127.017z"/>
    <path style="fill:#cfd8dc" d="M24.014 5a18.867 18.867 0 0 1 13.43 5.566A18.866 18.866 0 0 1 43 23.994c-.004 10.465-8.522 18.98-18.986 18.98h-.008a18.965 18.965 0 0 1-9.073-2.311l-10.065 2.64 2.694-9.835a18.941 18.941 0 0 1-2.535-9.489C5.032 13.514 13.548 5 24.014 5m0-1C12.998 4 4.032 12.962 4.027 23.979a20.01 20.01 0 0 0 2.461 9.622L3.903 43.04a.998.998 0 0 0 1.219 1.231l9.687-2.54a20.026 20.026 0 0 0 9.197 2.244c11.024 0 19.99-8.963 19.995-19.98A19.856 19.856 0 0 0 38.153 9.86 19.869 19.869 0 0 0 24.014 4z"/>
    <path style="fill:#40c351" d="M35.176 12.832a15.673 15.673 0 0 0-11.157-4.626c-8.704 0-15.783 7.076-15.787 15.774a15.738 15.738 0 0 0 2.413 8.396l.376.597-1.595 5.821 5.973-1.566.577.342a15.75 15.75 0 0 0 8.032 2.199h.006c8.698 0 15.777-7.077 15.78-15.776a15.68 15.68 0 0 0-4.618-11.161z"/>
    <path style="fill-rule:evenodd;clip-rule:evenodd;fill:#fff" d="M19.268 16.045c-.355-.79-.729-.806-1.068-.82-.277-.012-.593-.011-.909-.011-.316 0-.83.119-1.265.594-.435.475-1.661 1.622-1.661 3.956 0 2.334 1.7 4.59 1.937 4.906.237.316 3.282 5.259 8.104 7.161 4.007 1.58 4.823 1.266 5.693 1.187.87-.079 2.807-1.147 3.202-2.255.395-1.108.395-2.057.277-2.255-.119-.198-.435-.316-.909-.554s-2.807-1.385-3.242-1.543c-.435-.158-.751-.237-1.068.238-.316.474-1.225 1.543-1.502 1.859-.277.317-.554.357-1.028.119s-2.002-.738-3.815-2.354c-1.41-1.257-2.362-2.81-2.639-3.285-.277-.474-.03-.731.208-.968.213-.213.474-.554.712-.831.237-.277.316-.475.474-.791.158-.317.079-.594-.04-.831-.117-.238-1.039-2.584-1.461-3.522z"/>
</svg><svg id="wherehouse" data-name="Layer 1" viewBox="0 0 256.7 198.57" xmlns="http://www.w3.org/2000/svg">
    <defs>
        <style>.mcls-1{fill:none;stroke:#231f20;stroke-linecap:round;stroke-linejoin:round;stroke-width:2px}</style>
    </defs>
    <path class="mcls-1" d="M124.61 53.77 80.16 87.24a1.81 1.81 0 0 0 1.09 3.26H168a1.81 1.81 0 0 0 1.09-3.26ZM88.38 91.32v39.24M160.84 91.32v39.24M94.43 91.32v39.24M154.78 91.32v39.24M108.99 114.94h15.62v15.62h-15.62z"/>
    <path class="mcls-1" d="M124.61 114.94h15.62v15.62h-15.62zM116.8 99.32h15.62v15.62H116.8z"/>
    <path class="mcls-1" d="M122.44 99.32v4.86h4.33v-4.86M114.57 114.94v4.86h4.33v-4.86M134.65 114.94v4.86h-4.34v-4.86M127.65 84.58h-6.09M110.89 84.58h-6.09M138.32 84.58h6.09M79.89 130.56h89.43"/>
</svg></svg>