<svg id="Layer_1" data-name="Layer 1"
  xmlns="http://www.w3.org/2000/svg" viewBox="0 0 247.42 161.99" width="48px" height="48px" >
  <!-- <defs>
    <style>.cls-1{fill:none;stroke:#231f20;stroke-linecap:round;stroke-linejoin:round;stroke-width:2px;}</style>
  </defs> -->
  <path class="cls-1" d="M141.25,94.71h-6V62.14h17.65a7.29,7.29,0,0,1,6.34,3.71l5.55,9.86,6.75,2.68A2.34,2.34,0,0,1,173,80.56v9.76"/>
  <polyline class="cls-1" points="160.33 94.71 161.53 94.71 165.32 94.71 173.02 94.71"/>
  <polyline class="cls-1" points="75.68 80.25 75.68 94.71 80.94 94.71"/>
  <path class="cls-1" d="M100.88,94.71H130V56.56a5.65,5.65,0,0,0-5.65-5.66H75.68v9.54"/>
  <line class="cls-1" x1="130.04" y1="94.71" x2="135.26" y2="94.71"/>
  <line class="cls-1" x1="143.89" y1="79.96" x2="147.37" y2="79.96"/>
  <polyline class="cls-1" points="173.02 94.71 175.78 94.71 175.78 90.32 165.32 90.32 165.32 94.71"/>
  <circle class="cls-1" cx="152.37" cy="94.71" r="7.95" transform="translate(-22.34 135.48) rotate(-45)"/>
  <path class="cls-1" d="M154.57,94.71a2.2,2.2,0,1,1-2.2-2.19A2.2,2.2,0,0,1,154.57,94.71Z"/>
  <path class="cls-1" d="M94.64,94.71a2.2,2.2,0,1,1-2.19-2.19A2.2,2.2,0,0,1,94.64,94.71Z"/>
  <circle class="cls-1" cx="92.45" cy="94.71" r="7.95" transform="translate(-29.21 42.59) rotate(-22.5)"/>
  <line class="cls-1" x1="164.8" y1="75.71" x2="135.26" y2="75.71"/>
  <line class="cls-1" x1="139.51" y1="62.14" x2="141.25" y2="94.71"/>
  <line class="cls-1" x1="68.38" y1="60.44" x2="66.47" y2="60.44"/>
  <line class="cls-1" x1="91.65" y1="60.44" x2="72.36" y2="60.44"/>
  <line class="cls-1" x1="64.27" y1="75.71" x2="62.36" y2="75.71"/>
  <line class="cls-1" x1="87.54" y1="75.71" x2="68.25" y2="75.71"/>
  <line class="cls-1" x1="66.18" y1="68.08" x2="64.27" y2="68.08"/>
  <line class="cls-1" x1="89.45" y1="68.08" x2="70.16" y2="68.08"/>
</svg>