<svg id="Layer_1" data-name="Layer 1" xmlns="http://www.w3.org/2000/svg" viewBox="0 0 186.6 178.24"><defs><style>.cls-1{fill:none;stroke:#231f20;stroke-linecap:round;stroke-linejoin:round;stroke-width:2px;}</style></defs><line class="cls-1" x1="106.88" y1="113.89" x2="96.9" y2="113.89"/><circle class="cls-1" cx="83.84" cy="113.89" r="8.99" transform="translate(-57.56 111.35) rotate(-52.61)"/><path class="cls-1" d="M83.84,117.8a3.91,3.91,0,1,1,3.9-3.91A3.91,3.91,0,0,1,83.84,117.8Z"/><circle class="cls-1" cx="115.86" cy="113.89" r="8.99" transform="translate(-46.6 115.28) rotate(-45)"/><path class="cls-1" d="M115.86,117.8a3.91,3.91,0,1,1,3.91-3.91A3.91,3.91,0,0,1,115.86,117.8Z"/><line class="cls-1" x1="67.41" y1="55.36" x2="67.41" y2="119.27"/><line class="cls-1" x1="67.41" y1="119.27" x2="34.19" y2="119.27"/><path class="cls-1" d="M74.85,113.89H71.19a3.79,3.79,0,0,1-3.78-3.79V92.19H79.47L83,78.25a21.68,21.68,0,0,1,21-16.42h8.85a3.8,3.8,0,0,1,3.8,3.8V83.31h0a8.21,8.21,0,0,1,8.21,8.2v8.35h3.65a3.78,3.78,0,0,1,3.79,3.78v6.46a3.79,3.79,0,0,1-3.79,3.79h-3.65"/><rect class="cls-1" x="38.45" y="92.21" width="24.18" height="27.06"/><rect class="cls-1" x="38.45" y="98" width="24.18" height="21.28"/><polyline class="cls-1" points="79.47 92.19 116.64 92.19 116.64 83.31"/><line class="cls-1" x1="107.64" y1="99.86" x2="105.49" y2="99.86"/><line class="cls-1" x1="124.85" y1="99.86" x2="112.2" y2="99.86"/><path class="cls-1" d="M116.64,72.3h-1.86a7.3,7.3,0,0,0-7.22,6.2l-2.07,13.71"/><line class="cls-1" x1="80.91" y1="86.44" x2="91.39" y2="92.21"/><line class="cls-1" x1="92.89" y1="79.32" x2="98.06" y2="84.49"/><line class="cls-1" x1="95.47" y1="81.91" x2="87.59" y2="89.79"/><line class="cls-1" x1="53.03" y1="115.47" x2="58.27" y2="115.47"/><line class="cls-1" x1="53.03" y1="112.01" x2="58.27" y2="112.01"/></svg>