<svg id="Layer_1" data-name="Layer 1" xmlns="http://www.w3.org/2000/svg" viewBox="0 0 217.91 163.13"><defs><style>.cls-1{fill:none;stroke:#231f20;stroke-linecap:round;stroke-linejoin:round;stroke-width:2px;}</style></defs><path class="cls-1" d="M73,90.85a42.25,42.25,0,1,1,78.44-30.72"/><path class="cls-1" d="M152.61,65.07a43,43,0,0,1,.63,7.32,42.25,42.25,0,0,1-78.32,22"/><path class="cls-1" d="M134.57,76.41c-1.13,21.45-11.26,38.22-23.57,38.22-9.2,0-17.17-9.34-21.09-23"/><path class="cls-1" d="M89.06,88.34a71.58,71.58,0,0,1-1.75-16c0-23.33,10.61-42.24,23.69-42.24,12.8,0,23.23,18.13,23.66,40.79"/><path class="cls-1" d="M141.46,101.66A48.54,48.54,0,0,0,130.25,97a72.29,72.29,0,0,0-38.5,0,48.54,48.54,0,0,0-11.21,4.67"/><path class="cls-1" d="M141.46,43.13a49.43,49.43,0,0,1-11.21,4.67A70.06,70.06,0,0,1,111,50.4a70.06,70.06,0,0,1-19.25-2.6,49.43,49.43,0,0,1-11.21-4.67"/><line class="cls-1" x1="131.93" y1="72.39" x2="68.75" y2="72.39"/><line class="cls-1" x1="153.24" y1="72.39" x2="138.16" y2="72.39"/><path class="cls-1" d="M105.11,83.74l2.06,6L114.55,80,103,77.25l2.09,6.49c-5.44,1.84-10.68,3.35-15.58,4.49A104.3,104.3,0,0,1,74,90.78c-9.43.74-15.92-.68-17.43-4.47C54.89,82.1,59.7,75.79,68.77,69.09"/><polyline class="cls-1" points="109.52 50.39 109.53 50.39 109.54 50.39"/><path class="cls-1" d="M124.12,76.19c3.72-1.7,7.25-3.46,10.55-5.25l1-.55a111.71,111.71,0,0,0,16.21-10.63c7.27-5.9,11-11.34,9.46-15.1-1.67-4.19-12.08-5.91-23.16-4.59"/><line class="cls-1" x1="111" y1="91.2" x2="111" y2="114.63"/><line class="cls-1" x1="111" y1="30.15" x2="111" y2="79.17"/></svg>