<svg id="Layer_1" data-name="Layer 1" xmlns="http://www.w3.org/2000/svg" viewBox="0 0 261.86 160.82"><defs><style>.cls-1{fill:none;stroke:#231f20;stroke-linecap:round;stroke-linejoin:round;stroke-width:2px;}</style></defs><path class="cls-1" d="M98.93,87.82h61.35a4.4,4.4,0,0,1,4.4,4.4V113a0,0,0,0,1,0,0H94.53a0,0,0,0,1,0,0V92.21A4.4,4.4,0,0,1,98.93,87.82Z"/><rect class="cls-1" x="89" y="113.19" width="81.2" height="8.46"/><path class="cls-1" d="M148.54,48.15H110.67a6.09,6.09,0,0,0-6.09,6.09V87.82h50.05V54.24A6.09,6.09,0,0,0,148.54,48.15Z"/><path class="cls-1" d="M101.63,41.85h0a3,3,0,0,1,3,2.95v43h-5.9v-43A3,3,0,0,1,101.63,41.85Z"/><path class="cls-1" d="M157.58,41.85h0a3,3,0,0,0-3,2.95v43h5.9v-43A3,3,0,0,0,157.58,41.85Z"/><rect class="cls-1" x="104.58" y="62.71" width="50.06" height="18.1"/><rect class="cls-1" x="104.58" y="58.16" width="50.06" height="4.55"/><path class="cls-1" d="M141,93.41H118.2a3.13,3.13,0,0,0-3.13,3.13v16.65h29.07V96.54A3.13,3.13,0,0,0,141,93.41Z"/><line class="cls-1" x1="121.33" y1="107.08" x2="137.88" y2="107.08"/><line class="cls-1" x1="121.33" y1="100.5" x2="137.88" y2="100.5"/><path class="cls-1" d="M106.16,121.64v4.79a3,3,0,0,1-3,3H97.55a3,3,0,0,1-3-3v-4.79"/><path class="cls-1" d="M164.68,121.64v4.79a3,3,0,0,1-3,3h-5.59a3,3,0,0,1-3-3v-4.79"/><line class="cls-1" x1="151.58" y1="106.16" x2="157.77" y2="106.16"/><line class="cls-1" x1="107.63" y1="106.16" x2="101.44" y2="106.16"/><rect class="cls-1" x="165.43" y="64.35" width="6.84" height="14.99" rx="1.98"/><path class="cls-1" d="M168.85,64.35V62.1a2.3,2.3,0,0,0-2.29-2.29h-6"/><rect class="cls-1" x="86.94" y="64.35" width="6.84" height="14.99" rx="1.98"/><path class="cls-1" d="M90.36,64.35V62.1a2.3,2.3,0,0,1,2.29-2.29h6"/><line class="cls-1" x1="129.61" y1="62.71" x2="129.61" y2="80.8"/><line class="cls-1" x1="138.78" y1="65.98" x2="135.97" y2="68.79"/><line class="cls-1" x1="147.59" y1="68.79" x2="139.73" y2="76.65"/><line class="cls-1" x1="114.06" y1="65.98" x2="111.25" y2="68.79"/><line class="cls-1" x1="122.87" y1="68.79" x2="115.01" y2="76.65"/></svg>