<svg id="Layer_1" data-name="Layer 1" xmlns="http://www.w3.org/2000/svg" viewBox="0 0 256.7 198.57"><defs><style>.cls-1{fill:none;stroke:#231f20;stroke-linecap:round;stroke-linejoin:round;stroke-width:2px;}</style></defs><path class="cls-1" d="M124.61,53.77,80.16,87.24a1.81,1.81,0,0,0,1.09,3.26H168a1.81,1.81,0,0,0,1.09-3.26Z"/><line class="cls-1" x1="88.38" y1="91.32" x2="88.38" y2="130.56"/><line class="cls-1" x1="160.84" y1="91.32" x2="160.84" y2="130.56"/><line class="cls-1" x1="94.43" y1="91.32" x2="94.43" y2="130.56"/><line class="cls-1" x1="154.78" y1="91.32" x2="154.78" y2="130.56"/><rect class="cls-1" x="108.99" y="114.94" width="15.62" height="15.62"/><rect class="cls-1" x="124.61" y="114.94" width="15.62" height="15.62"/><rect class="cls-1" x="116.8" y="99.32" width="15.62" height="15.62"/><polyline class="cls-1" points="122.44 99.32 122.44 104.18 126.77 104.18 126.77 99.32"/><polyline class="cls-1" points="114.57 114.94 114.57 119.8 118.9 119.8 118.9 114.94"/><polyline class="cls-1" points="134.65 114.94 134.65 119.8 130.31 119.8 130.31 114.94"/><polyline class="cls-1" points="127.65 84.58 124.61 84.58 121.56 84.58"/><polyline class="cls-1" points="110.89 84.58 107.85 84.58 104.8 84.58"/><polyline class="cls-1" points="138.32 84.58 141.37 84.58 144.41 84.58"/><line class="cls-1" x1="79.89" y1="130.56" x2="169.32" y2="130.56"/></svg>